# xmcd
#
# Track frame offsets: 
#        150
#        15385
#        31846
#        51964
#        61529
#        78304
#        93497
#        106162
#        128433
#
# Disc length: 1955 seconds
#
# Revision: 0
# Processed by: cddbd v1.5.2PL0 Copyright (c) Steve Scherf et al.
# Submitted via: ExactAudioCopy v1.0b3
#
DISCID=5a07a109
DTITLE=Jeff Gates Band - Colorblind Blues
DYEAR=2012
DGENRE=Blues
TTITLE0=Call Me Up
TTITLE1=Bad Mood
TTITLE2=Colorblind
TTITLE3=Layin' In The ed
TTITLE4=Why You Wanna Be So Bad
TTITLE5=When My Baby Lets Me
TTITLE6=Over You
TTITLE7=I Saw The Light
TTITLE8=Blue Condition
EXTD=
EXTT0=
EXTT1=
EXTT2=
EXTT3=
EXTT4=
EXTT5=
EXTT6=
EXTT7=
EXTT8=
PLAYORDER=
